<svg width="41" height="21" viewBox="0 0 41 21" fill="none" xmlns="http://www.w3.org/2000/svg">
<path d="M11.5466 13.7576C9.5719 13.7576 7.95622 12.3123 7.95622 10.5457C7.95622 8.77922 9.5719 7.33388 11.5466 7.33388C13.5214 7.33388 15.137 8.77922 15.137 10.5457C15.137 12.3123 13.5214 13.7576 11.5466 13.7576ZM21.5998 7.33388C20.1636 3.64024 16.2142 0.910156 11.5466 0.910156C5.62245 0.910156 0.775391 5.24617 0.775391 10.5457C0.775391 15.8453 5.62245 20.1813 11.5466 20.1813C16.2142 20.1813 20.1636 17.4513 21.5998 13.7576H27.7035V20.1813H34.8843V13.7576H40.2699V7.33388H21.5998Z" fill="black"/>
<path d="M11.5469 1.41016C16.0251 1.41025 19.7783 4.02902 21.1338 7.51465L21.2578 7.83398H39.7695V13.2578H34.3848V19.6816H28.2031V13.2578H21.2578L21.1338 13.5762C19.7784 17.062 16.0253 19.6815 11.5469 19.6816C5.84505 19.6816 1.27548 15.5183 1.27539 10.5459C1.27539 5.5734 5.84499 1.41016 11.5469 1.41016ZM11.5469 6.83398C9.34985 6.83398 7.45605 8.4523 7.45605 10.5459C7.45614 12.6394 9.3499 14.2578 11.5469 14.2578C13.7437 14.2577 15.6366 12.6393 15.6367 10.5459C15.6367 8.45238 13.7438 6.8341 11.5469 6.83398Z" stroke="#E9A863" stroke-opacity="0.8"/>
</svg>
