<svg width="27" height="28" viewBox="0 0 27 28" fill="none" xmlns="http://www.w3.org/2000/svg">
<path d="M13.1708 0.861816C14.9129 0.861816 16.5837 1.56076 17.8156 2.8049C19.0475 4.04903 19.7395 5.73644 19.7395 7.49591C19.7395 9.25538 19.0475 10.9428 17.8156 12.1869C16.5837 13.4311 14.9129 14.13 13.1708 14.13C11.4286 14.13 9.75781 13.4311 8.52593 12.1869C7.29404 10.9428 6.60198 9.25538 6.60198 7.49591C6.60198 5.73644 7.29404 4.04903 8.52593 2.8049C9.75781 1.56076 11.4286 0.861816 13.1708 0.861816ZM13.1708 17.4471C20.4293 17.4471 26.3083 20.4158 26.3083 24.0811V27.3982H0.0332031V24.0811C0.0332031 20.4158 5.91226 17.4471 13.1708 17.4471Z" fill="black"/>
<path d="M13.1709 17.9468C16.7387 17.9468 19.9428 18.6773 22.2363 19.8354C24.5583 21.008 25.8086 22.5376 25.8086 24.0815V26.8979H0.533203V24.0815C0.533203 22.5376 1.78354 21.008 4.10547 19.8354C6.39899 18.6773 9.60318 17.9468 13.1709 17.9468ZM13.1709 1.36182C14.7787 1.36185 16.3215 2.00703 17.46 3.15674C18.5986 4.30666 19.2392 5.86726 19.2393 7.49561C19.2393 9.12406 18.5986 10.6855 17.46 11.8354C16.3215 12.985 14.7786 13.6303 13.1709 13.6304C11.563 13.6304 10.0194 12.9853 8.88086 11.8354C7.7422 10.6855 7.10156 9.12405 7.10156 7.49561C7.10164 5.86736 7.74239 4.30664 8.88086 3.15674C10.0194 2.00691 11.563 1.36182 13.1709 1.36182Z" stroke="#E9A863" stroke-opacity="0.8"/>
</svg>
